# xmcd CD database file
#
# Track frame offsets:
#	150
#	16800
#	33081
#	41725
#	59275
#	73293
#	84400
#	103976
#	116725
#	134238
#
# Disc length: 1975 seconds
#
# Revision: 0
# Processed by: cddbd v1.5.1PL2 Copyright (c) Steve Scherf et al.
# Submitted via: CDex 1.51
#
DISCID=8f07b50a
DTITLE=Brad Johner - The Classics
DYEAR=2005
DGENRE=Country
TTITLE0=Don't Fence Me In
TTITLE1=What a Wonderful World
TTITLE2=I'm My Own Grandpa
TTITLE3=You Don't Know Me
TTITLE4=Are You Lonesome Tonight
TTITLE5=That's What Little Kids Do
TTITLE6=I Wish I Were Eighteen Again
TTITLE7=Fly Me To The Moon
TTITLE8=For The Good imes
TTITLE9=Saskatchewan Centennial Song
EXTD=YEAR: 2005
EXTT0=
EXTT1=
EXTT2=
EXTT3=
EXTT4=
EXTT5=
EXTT6=
EXTT7=
EXTT8=
EXTT9=
PLAYORDER=
